<svg width="67" height="65" viewBox="0 0 67 65" fill="none" xmlns="http://www.w3.org/2000/svg">
<path d="M29.8626 0.879184C34.345 0.112562 39.029 0.513101 43.2926 2.10664C47.5863 3.70018 51.4167 6.46949 54.3764 9.96236C54.6509 10.2897 54.904 10.7419 54.7195 11.1726C54.4965 11.6722 53.9174 12.1115 53.3555 11.9005C52.7335 11.642 52.2874 11.1037 51.7298 10.7419C46.8099 7.19735 40.5003 5.63396 34.5037 6.50395C28.5844 7.33087 23.0339 10.5266 19.3622 15.2641C27.0402 13.9505 34.9198 13.8299 42.6235 15.0014C46.9343 15.669 51.2065 16.7414 55.2257 18.4598C57.6706 19.515 60.0341 20.8157 62.1015 22.5169C63.7873 23.9123 65.2928 25.6049 66.1807 27.6334C67 29.4725 67.1973 31.5828 66.7212 33.5381C66.2236 35.6614 64.9969 37.5435 63.5256 39.1198C60.9305 41.8633 57.6449 43.8445 54.2606 45.4552C52.2102 46.4243 50.0913 47.2426 47.938 47.9618C47.5348 48.0953 47.0801 48.1815 46.6769 48.0049C46.0636 47.7551 45.8577 46.8076 46.3724 46.364C46.8828 45.8816 47.5649 45.6576 48.1825 45.3562C50.7304 44.1718 53.1968 42.7462 55.3372 40.9072C56.7698 39.6496 58.1081 38.1723 58.7601 36.3462C59.3563 34.7053 59.0518 32.8447 58.2239 31.3373C57.1988 29.4595 55.5431 28.0253 53.7844 26.8582C50.3101 24.5928 46.3424 23.2189 42.349 22.1939C33.8474 20.0964 24.9899 19.7131 16.2867 20.4668C13.5072 26.7807 13.9791 34.3564 17.3119 40.3688C18.4615 42.4577 19.9413 44.3656 21.7128 45.9591C22.0045 46.2262 22.3047 46.575 22.2576 47.0057C22.1975 47.5354 21.76 48.0652 21.2024 48.0781C20.7048 48.0824 20.2802 47.7809 19.877 47.5225C15.2487 44.4862 11.6714 39.8994 9.78406 34.6881C8.28278 30.5276 7.84526 25.9494 8.68598 21.5995C6.39546 22.0819 4.10922 22.6245 1.8573 23.2835C1.53131 23.3653 1.19245 23.473 0.853588 23.3869C0.210182 23.2577 -0.180151 22.4221 0.15442 21.8493C0.390336 21.4574 0.806405 21.242 1.19245 21.031C3.92049 19.5451 6.82439 18.4081 9.77977 17.4778C11.3626 13.171 14.1292 9.32494 17.6722 6.43073C21.1638 3.56236 25.4102 1.62858 29.8626 0.879184ZM39.2649 42.014C39.6038 41.8073 40.0756 41.7599 40.4059 42.014C40.6675 42.2079 40.7233 42.5567 40.7233 42.8625C40.719 49.7147 40.7233 56.5712 40.719 63.4235C40.7533 63.979 40.2858 64.5174 39.7196 64.4959C37.8323 64.5002 35.9407 64.4959 34.049 64.4959C34.049 58.0054 34.049 51.5193 34.049 45.0288C35.7905 44.0253 37.5234 43.0175 39.2649 42.014ZM28.2884 48.3581C29.6181 47.5828 30.9564 46.8205 32.2861 46.0496C32.2861 52.1969 32.2861 58.3457 32.2861 64.4959C30.9435 64.4916 29.601 64.5045 28.2627 64.4916C27.8595 64.5002 27.6021 64.0824 27.645 63.712C27.645 58.9874 27.645 54.2628 27.645 49.5381C27.6236 49.0601 27.8638 48.582 28.2884 48.3581Z" fill="black"/>
</svg>
