<svg width="234" height="100" viewBox="0 0 234 100" fill="none" xmlns="http://www.w3.org/2000/svg">
<path fill-rule="evenodd" clip-rule="evenodd" d="M16.0161 10.6834C21.6161 10.6667 22.5828 10.7 22.7995 10.9167C23.0161 11.1334 23.0495 12.2 23.0495 18.55C23.0495 22.9 22.9828 26.0167 22.8828 26.1667C22.7495 26.3834 21.7495 26.4167 15.5161 26.4167C8.48279 26.4167 8.28279 26.4 7.38279 26.05C6.88279 25.85 6.08279 25.35 5.63279 24.95C5.16613 24.55 4.56613 23.7834 4.26613 23.2334C3.98279 22.7 3.61613 21.7667 3.48279 21.1667C3.33279 20.5667 3.21613 19.4834 3.21613 18.75C3.21613 18.0167 3.33279 16.9 3.46613 16.25C3.61613 15.6167 3.89946 14.7167 4.09946 14.25C4.31613 13.8 4.74946 13.1167 5.08279 12.75C5.39946 12.3834 6.08279 11.8667 6.56613 11.6C7.06613 11.3334 7.91613 11.0167 8.46613 10.9C9.16613 10.75 11.3995 10.6834 16.0161 10.6834ZM47.9995 10.6834C51.7161 10.6667 53.7661 10.7334 55.0828 10.9167C56.1161 11.05 57.7495 11.3834 58.7161 11.6834C59.6828 11.9667 61.0661 12.4667 61.7995 12.8C62.5328 13.1334 63.6161 13.6834 64.2161 14.05C64.8161 14.4 65.6995 15 66.1995 15.3834C66.6995 15.7667 67.6495 16.65 68.3328 17.3334C69.0328 18.0167 70.1328 19.4167 70.8161 20.4167C71.4828 21.4334 72.3661 23 72.7661 23.9167C73.1828 24.8334 73.6828 26.1834 73.8828 26.9167C74.0828 27.65 74.3661 28.8834 74.4828 29.6667C74.6161 30.45 74.7161 31.8334 74.7161 32.75C74.7161 33.6667 74.5995 35.1667 74.4661 36.0834C74.3328 37 74.0328 38.4334 73.8161 39.25C73.5995 40.0667 73.0328 41.5334 71.7495 44.25L73.5828 47C74.5995 48.5167 75.7495 50.3834 76.1328 51.1667C76.5161 51.95 77.0828 53.2667 77.3828 54.0834C77.6661 54.9001 78.0495 56.2667 78.2161 57.0834C78.3995 57.9001 78.6161 59.4834 78.7161 60.5834C78.8495 62.0001 78.8495 63.1834 78.7161 64.6667C78.6161 65.8167 78.3995 67.4834 78.2161 68.3834C78.0328 69.2667 77.6328 70.7001 77.3161 71.5501C77.0161 72.3834 76.4161 73.7667 76.0161 74.5834C75.5995 75.4001 74.7828 76.8001 74.1995 77.6667C73.5161 78.7167 72.4328 79.9667 71.0661 81.3334C69.6995 82.7001 68.4161 83.8001 67.3828 84.4834C66.5161 85.0501 65.0495 85.8834 64.1328 86.3334C63.2161 86.7834 61.6495 87.4167 60.6328 87.7334C59.6161 88.0667 58.0828 88.4501 57.2161 88.6167C55.8661 88.8667 54.6328 88.9167 41.6328 88.9167L40.6328 88.5001C39.9995 88.2501 39.3161 87.7834 38.7828 87.2501C38.3161 86.8001 37.7495 86.0501 37.5161 85.5834C37.2828 85.1334 37.0328 84.5167 36.9661 84.2501C36.8995 83.9834 36.8328 74.0167 36.8161 62.1167C36.7995 50.2001 36.8328 40.4 36.8828 40.3334C36.9328 40.2667 40.1828 40.1667 44.1328 40.1334C49.5661 40.0834 51.4328 40 51.8828 39.8334C52.1995 39.7167 52.7661 39.4167 53.1328 39.1667C53.4995 38.9167 54.0828 38.4334 54.4328 38.0667C54.7661 37.7167 55.2495 37.05 55.4661 36.5834C55.7495 36.0167 55.9328 35.2667 56.0495 34.25C56.1328 33.4334 56.2161 31.9334 56.2161 30.9167C56.2161 29.9 56.1661 28.5 55.9661 26.5H36.7161L36.6161 25.05C36.5495 24.2334 36.5495 22.05 36.5995 20.1667C36.6661 18 36.7995 16.3167 36.9661 15.5834C37.0995 14.95 37.3995 14.1167 37.6161 13.75C37.8328 13.3834 38.2995 12.8334 38.6495 12.5334C38.9995 12.2334 39.7161 11.7834 40.2161 11.5334C40.7161 11.3 41.4995 11 41.9661 10.9C42.5161 10.7667 44.5828 10.6834 47.9995 10.6834ZM96.5495 10.6834C102.033 10.6667 104.349 10.7334 106.049 10.9167C107.283 11.0667 109.199 11.4 110.299 11.6667C111.399 11.9334 112.899 12.4 113.633 12.6667C114.366 12.95 115.633 13.5334 116.466 13.9334C117.299 14.35 118.683 15.1667 119.549 15.75C120.416 16.3334 121.699 17.2834 122.383 17.8667C123.066 18.45 124.216 19.5667 124.933 20.35C125.649 21.1167 126.716 22.4334 127.299 23.25C127.899 24.0834 128.866 25.7334 129.466 26.9167C130.049 28.1167 130.799 29.8667 131.116 30.8334C131.433 31.8 131.866 33.3667 132.066 34.3334C132.416 35.8834 132.449 36.5334 132.466 40.25C132.466 43.1167 132.399 44.7334 132.249 45.4167C132.116 45.9667 131.766 47.2834 131.466 48.3334C131.149 49.3834 130.549 51.0334 130.133 52C129.716 52.9667 129.033 54.3501 128.599 55.0834C128.183 55.8167 127.316 57.1167 126.699 57.9667C126.066 58.8001 125.049 60.0167 124.416 60.6334C123.799 61.2667 122.816 62.1667 122.216 62.6667C121.616 63.1501 120.466 64.0001 119.633 64.5501C118.799 65.0834 117.233 65.9667 116.133 66.5167C115.033 67.0501 113.349 67.7501 112.383 68.0834C111.416 68.4167 109.916 68.8334 109.049 69.0001C108.183 69.1834 106.566 69.4001 105.466 69.5001C104.366 69.6001 103.449 69.6834 103.416 69.7167C103.399 69.7334 103.349 72.9834 103.316 76.9167C103.266 83.9334 103.249 84.1001 102.883 85.0834C102.599 85.8167 102.216 86.3667 101.483 87.1C100.766 87.8167 100.183 88.2334 99.4661 88.5167C98.5328 88.8834 98.2161 88.9001 94.3828 88.9667C91.9495 89.0001 89.7661 88.9501 88.9661 88.8334C88.0995 88.7167 87.3494 88.5001 86.8161 88.2001C86.3828 87.9501 85.6828 87.4001 85.2828 86.9667C84.8828 86.5167 84.2995 85.6667 83.4661 83.9167L83.4161 50.5834C83.3828 26.25 83.4161 16.9834 83.5495 16.25C83.6661 15.7 83.9828 14.8 84.2661 14.2667C84.5661 13.7167 85.1661 12.95 85.6328 12.5334C86.0828 12.1334 86.7661 11.6334 87.1328 11.45C87.4995 11.2667 88.1328 11.0167 88.5495 10.9C89.0995 10.75 91.2995 10.7 96.5495 10.6834ZM15.8328 40.0167C21.5995 40.0001 22.5828 40.0334 22.7995 40.25C23.0161 40.4667 23.0495 43.1001 22.9995 62.3001C22.9661 82.5334 22.9495 84.1334 22.6828 84.8334C22.5161 85.2501 22.1495 85.9167 21.8661 86.3334C21.5828 86.7501 20.9661 87.3667 20.4995 87.7167C20.0161 88.0667 19.2495 88.4667 18.7995 88.6167C18.2161 88.7834 16.9495 88.9001 14.6328 88.9501C12.6828 89.0001 10.5495 88.9667 9.49946 88.85C8.26613 88.7167 7.44946 88.5334 6.83279 88.2667C6.34946 88.0334 5.61613 87.4834 5.16613 87.0167C4.73279 86.55 4.18279 85.7334 3.46613 84.2501V44.75L3.91613 43.8334C4.16613 43.3334 4.64946 42.5834 5.01613 42.1667C5.36613 41.75 6.09946 41.1834 6.64946 40.8834C7.18279 40.5834 7.96613 40.2667 8.38279 40.1834C8.79946 40.1001 12.1495 40.0334 15.8328 40.0167ZM228.383 65.6667L228.466 66.2167C228.516 66.5001 229.233 70.9001 230.049 75.9667C230.883 81.0167 231.549 85.2001 231.549 85.2501C231.549 85.3001 230.799 85.3334 228.216 85.3334L228.049 83.9667C227.949 83.2001 227.833 82.3334 227.716 81.5001H224.466L224.249 82.8667C224.133 83.6334 223.999 84.5001 223.883 85.3334H222.383C220.999 85.3334 220.883 85.3167 220.883 85.0001C220.883 84.8167 221.566 80.4834 222.383 75.3834C223.216 70.2667 223.933 65.9834 223.966 65.8834C224.016 65.7167 224.633 65.6667 228.383 65.6667ZM224.966 77.9667L224.883 78.6667C227.049 78.6667 227.216 78.6167 227.216 78.3834C227.216 78.2167 226.983 76.4167 226.716 74.3834C226.433 72.3334 226.149 70.6667 226.066 70.6667C225.983 70.6667 225.733 72.1501 225.483 73.9667C225.233 75.7667 224.999 77.5667 224.966 77.9667ZM156.049 14.05C156.999 14.0834 157.516 14.2 158.216 14.55C158.883 14.8667 159.283 15.2167 159.666 15.7834C159.983 16.25 160.283 16.9667 160.383 17.5C160.483 18 160.549 18.9167 160.549 20.6667H157.383L157.349 19.15C157.299 17.7667 157.266 17.6167 156.883 17.3167C156.633 17.1167 156.216 16.9834 155.849 17C155.449 17 155.099 17.1167 154.883 17.3334C154.699 17.5167 154.499 17.9834 154.449 18.3667C154.399 18.7667 154.383 21.6 154.416 24.6667C154.466 29.6667 154.499 30.3167 154.766 30.7167C154.999 31.1 155.166 31.1667 155.849 31.1667C156.433 31.1834 156.716 31.0834 156.966 30.8167C157.266 30.5 157.299 30.2 157.383 25.6667H155.883L155.966 22.75L157.883 22.7C158.933 22.6834 159.966 22.7 160.549 22.8334L160.499 26.8667C160.466 30.5334 160.433 30.9834 160.116 31.6667C159.933 32.0834 159.499 32.7 159.166 33.0334C158.733 33.4834 158.266 33.7501 157.599 33.9334C156.933 34.1167 156.233 34.1834 155.383 34.1334C154.649 34.0834 153.883 33.9334 153.549 33.7667C153.233 33.6001 152.716 33.2334 152.416 32.9334C152.116 32.65 151.716 32.0167 151.549 31.5334C151.233 30.7334 151.216 30.2167 151.216 24.0834C151.216 17.9167 151.233 17.45 151.549 16.5834C151.783 15.9334 152.083 15.5 152.599 15.0834C152.983 14.75 153.633 14.3834 154.049 14.25C154.499 14.1 155.283 14.0167 156.049 14.05ZM146.049 14.3334H149.383V33.8334L149.016 33.9167C148.799 33.9667 148.066 34 146.133 33.9167L146.049 14.3334ZM162.249 14.3167L168.999 14.4167L169.799 14.9167C170.383 15.2667 170.733 15.65 171.049 16.25C171.399 16.95 171.483 17.3334 171.533 18.9167C171.566 20.0334 171.499 21.1167 171.383 21.6667C171.216 22.3667 170.999 22.75 169.799 23.95L170.266 24.2167C170.516 24.3834 170.883 24.8167 171.083 25.2C171.416 25.85 171.466 26.2667 171.583 29.5C171.649 31.4667 171.733 33.2667 171.749 33.5C171.799 33.9167 171.783 33.9167 170.383 33.9667C169.599 33.9834 168.849 33.9334 168.716 33.8334C168.516 33.7167 168.449 33.0501 168.383 30.1834C168.316 26.9667 168.283 26.65 167.949 26.2167C167.683 25.8667 167.399 25.7167 166.783 25.6167C166.333 25.55 165.883 25.5334 165.766 25.5834C165.599 25.65 165.549 26.65 165.549 29.75C165.549 33.2334 165.516 33.85 165.299 33.9167C165.166 33.9667 164.533 34 163.883 34C163.249 34 162.599 33.9667 162.466 33.9167C162.249 33.85 162.216 32.6 162.233 24.0667L162.249 14.3167ZM165.549 22.6834C167.133 22.5834 167.466 22.4667 167.766 22.1667C168.033 21.8834 168.199 21.4667 168.299 20.85C168.366 20.3334 168.366 19.4834 168.299 18.9334C168.216 18.3834 168.049 17.7834 167.899 17.6167C167.716 17.3834 167.349 17.2834 166.616 17.2167L165.599 17.1334L165.549 22.6834ZM173.549 14.35H182.049V17.1834L176.866 17.2667L176.799 22.1834L180.966 22.2667L181.049 25.1834H176.799L176.866 30.9334L182.049 31.0167V32.4334C182.049 33.7667 182.033 33.8667 181.683 33.95C181.466 34 179.583 34.0167 173.633 33.9334L173.549 14.35ZM185.716 14.35H189.049V22.2334C189.049 28.7167 189.016 30.2834 188.799 31.0667C188.666 31.5834 188.383 32.25 188.183 32.5334C187.966 32.8167 187.466 33.25 187.049 33.5C186.383 33.8834 186.133 33.9334 182.966 33.9334V31.1L184.033 31.0167C184.899 30.95 185.133 30.8667 185.399 30.5167C185.716 30.1167 185.733 29.8 185.733 22.2334L185.716 14.35ZM193.399 14.3334L197.783 14.4334L199.333 24.0167C200.183 29.2834 200.849 33.6834 200.799 33.8C200.733 33.95 200.266 34.0167 199.299 34.0167C198.333 34.0167 197.833 33.95 197.749 33.8C197.683 33.6834 197.516 32.85 197.116 30.2667L193.799 30.1667L193.566 31.8834C193.449 32.8334 193.266 33.7 193.149 33.8167C193.033 33.95 192.516 34.0334 191.666 34.0167C190.949 34.0167 190.333 33.9334 190.299 33.8501C190.249 33.7501 190.316 33.0167 190.449 32.2167C190.583 31.4167 190.966 29.15 191.283 27.1834C191.599 25.2167 192.133 21.9167 192.466 19.85C192.799 17.7834 193.149 15.7 193.233 15.2167L193.399 14.3334ZM195.249 20.0167C195.149 20.6 194.899 22.25 194.716 23.6834C194.533 25.1 194.333 26.5 194.283 26.8L194.216 27.35H196.716C196.583 26.5 196.349 24.9167 196.116 23.2667C195.883 21.6167 195.633 19.9667 195.566 19.6L195.433 18.9334L195.249 20.0167ZM186.799 40.6834C187.499 40.6834 188.299 40.7834 188.799 40.9667C189.316 41.1334 189.866 41.5 190.266 41.9167C190.666 42.3334 190.999 42.9167 191.149 43.4334C191.283 43.8834 191.383 44.7667 191.383 46.5167H188.466L188.349 45.3834C188.266 44.4667 188.166 44.2 187.816 43.8834C187.583 43.6834 187.233 43.5167 187.049 43.5167C186.866 43.5167 186.516 43.6167 186.249 43.7334C185.999 43.8667 185.749 44.0834 185.666 44.2334C185.599 44.3834 185.549 44.8834 185.549 45.3501C185.549 45.8001 185.666 46.45 185.816 46.8C185.966 47.1667 187.016 48.3834 188.283 49.6834C189.783 51.2167 190.599 52.1834 190.866 52.7667C191.083 53.2167 191.316 54.0001 191.416 54.5167C191.516 55.0167 191.533 55.9167 191.466 56.5167C191.416 57.1001 191.216 57.9334 191.033 58.3501C190.866 58.7501 190.483 59.3334 190.183 59.6334C189.883 59.9167 189.333 60.2834 188.966 60.4334C188.599 60.5834 187.816 60.7501 187.216 60.8001C186.483 60.8667 185.833 60.8001 185.166 60.6167C184.483 60.4167 183.999 60.1334 183.483 59.6334C182.949 59.1167 182.683 58.6834 182.483 58.0167C182.333 57.5001 182.216 56.5501 182.216 54.6834H185.216V55.4667C185.216 55.9001 185.299 56.5334 185.383 56.8834C185.483 57.2334 185.699 57.5834 185.883 57.6834C186.066 57.7667 186.466 57.8501 186.749 57.8501C187.049 57.8501 187.483 57.7167 187.699 57.5667C188.016 57.3167 188.099 57.0667 188.166 56.2667C188.233 55.5501 188.166 55.0501 187.949 54.5167C187.749 53.9667 187.033 53.1167 185.466 51.5167C183.983 49.9834 183.133 48.9667 182.833 48.3501C182.516 47.7001 182.349 47.0501 182.266 46.1834C182.199 45.3834 182.249 44.6001 182.383 44.0167C182.499 43.5001 182.766 42.8334 182.966 42.5167C183.166 42.1834 183.549 41.7667 183.816 41.5667C184.083 41.3667 184.599 41.0834 184.966 40.95C185.333 40.8167 186.149 40.7001 186.799 40.6834ZM149.299 40.8834C151.966 40.9334 152.399 40.9834 153.133 41.3167C153.583 41.5334 154.133 41.8667 154.349 42.0667C154.566 42.2667 154.883 42.8167 155.049 43.3C155.299 43.95 155.383 44.6 155.383 45.8C155.383 46.9334 155.299 47.6834 155.099 48.25C154.916 48.7667 154.566 49.2667 153.599 50.1001L154.099 50.4334C154.383 50.6167 154.799 51.0167 154.999 51.3501C155.216 51.6667 155.483 52.2334 155.583 52.6001C155.683 52.9834 155.716 54.1834 155.683 55.4334C155.633 57.2167 155.549 57.7167 155.266 58.2667C155.066 58.6334 154.699 59.1167 154.433 59.3667C154.183 59.6001 153.699 59.9501 153.383 60.1167C152.883 60.3834 152.349 60.4334 146.049 60.5167L146.016 50.7834C145.999 45.0667 146.049 41.0167 146.149 40.9334C146.233 40.8667 147.649 40.8334 149.299 40.8834ZM149.383 48.8501C150.549 48.8501 151.083 48.7334 151.333 48.6167C151.599 48.4834 151.849 48.2167 151.916 47.9834C151.983 47.7667 152.049 46.9334 152.049 46.1334C152.049 44.8 152.016 44.6501 151.633 44.2667C151.283 43.9167 151.049 43.8501 150.299 43.8501H149.383V48.8501ZM149.383 57.6834C150.483 57.6834 151.049 57.6167 151.366 57.5501C151.744 57.4723 152.005 57.2778 152.149 56.9667C152.299 56.6667 152.383 55.9167 152.383 54.7667C152.383 53.6167 152.299 52.85 152.149 52.55C152.033 52.3 151.799 52.0334 151.649 51.9667C151.499 51.9 150.933 51.8501 150.383 51.8501H149.383V57.6834ZM161.799 40.8501C162.949 40.8501 163.916 40.9 163.949 40.9667C163.999 41.0334 164.249 42.4501 164.533 44.1001C164.816 45.7501 165.299 48.7001 165.616 50.6834C165.949 52.6501 166.399 55.4667 166.633 56.9334C166.866 58.4001 167.083 59.8001 167.216 60.5167H163.883L163.816 59.9667C163.766 59.6667 163.683 58.9834 163.616 58.4334C163.549 57.8834 163.433 57.2501 163.366 57.0501C163.216 56.7001 163.133 56.6834 160.133 56.7667L159.949 57.8501C159.833 58.4334 159.716 59.2834 159.549 60.5167H158.049C156.733 60.5167 156.549 60.4667 156.549 60.2167C156.549 60.0501 157.233 55.7334 158.066 50.6001C158.883 45.4667 159.599 41.1667 159.633 41.05C159.683 40.9 160.266 40.8501 161.799 40.8501ZM160.549 53.7167C160.549 53.9667 160.716 54.0167 161.716 54.0167C162.883 54.0167 162.883 54.0167 162.883 53.5501C162.883 53.3001 162.816 52.6501 162.716 52.1001C162.633 51.5501 162.399 49.9667 162.216 48.6001C162.016 47.2167 161.799 46.0334 161.749 45.9667C161.683 45.9167 161.383 47.5667 161.083 49.6334C160.783 51.7167 160.549 53.5501 160.549 53.7167ZM176.049 40.8501V43.8501H172.883V60.5167H169.549V43.8501H166.383L166.349 42.45C166.333 41.6834 166.383 41.0167 166.466 40.95C166.549 40.9 168.733 40.8501 176.049 40.8501ZM177.383 40.8501H180.549V60.5167H177.383V40.8501ZM201.883 40.8501V43.8501H198.716V60.5167L195.466 60.4334L195.383 43.8501H192.216L192.183 42.45C192.166 41.6834 192.216 41.0167 192.299 40.95C192.383 40.9 194.566 40.8501 201.883 40.8501ZM208.616 40.9334L209.149 44.1001C209.433 45.8334 209.983 49.2167 210.383 51.6001C210.766 53.9834 211.233 56.9334 211.433 58.1501C211.666 59.5667 211.733 60.4001 211.633 60.4501C211.533 60.4834 210.783 60.5001 208.466 60.4334L207.966 56.7667L204.716 56.6834L204.633 57.2167C204.583 57.5167 204.449 58.3667 204.133 60.4334L202.666 60.4667C201.266 60.5167 201.216 60.5001 201.216 60.1334C201.216 59.9334 201.699 56.8001 202.283 53.1834C202.883 49.5501 203.533 45.4667 203.733 44.1001C203.933 42.7167 204.149 41.4167 204.233 41.2167C204.383 40.85 204.433 40.8334 208.616 40.9334ZM205.116 53.6334C205.049 54.0001 205.099 54.0167 206.299 54.0167C206.983 54.0167 207.549 53.9667 207.549 53.9334C207.549 53.8834 207.283 51.9834 206.966 49.7167C206.649 47.45 206.366 45.5334 206.333 45.4667C206.316 45.4 206.049 47.1334 205.749 49.3C205.433 51.4834 205.149 53.4334 205.116 53.6334ZM146.083 65.6501L149.266 65.7001C152.133 65.7667 152.533 65.8001 153.133 66.1167C153.499 66.3167 154.049 66.7167 154.349 67.0334C154.649 67.3334 155.016 67.9667 155.183 68.4334C155.433 69.1667 155.466 70.0167 155.466 75.5167C155.466 80.9834 155.433 81.8667 155.183 82.6001C155.016 83.0501 154.616 83.7167 154.266 84.0834C153.916 84.4334 153.366 84.8501 153.049 85.0001C152.599 85.1834 151.699 85.2667 146.049 85.35L146.083 65.6501ZM149.383 82.3334C150.799 82.3334 151.333 82.2834 151.499 82.2167C151.649 82.1501 151.866 81.8834 151.999 81.6334C152.166 81.2667 152.216 79.9667 152.216 75.6334C152.216 72.3334 152.149 69.8667 152.049 69.5501C151.966 69.2501 151.733 68.9334 151.549 68.8334C151.366 68.7501 150.799 68.6667 150.299 68.6667H149.383V82.3334ZM161.883 65.6667C163.216 65.6667 164.049 65.7334 164.049 65.8334C164.049 65.9334 164.283 67.3334 164.549 68.9667C164.816 70.6001 165.349 73.7667 165.699 76.0001C166.066 78.2501 166.516 81.0334 166.699 82.1667C166.883 83.3167 167.099 84.5 167.299 85.35L163.883 85.3334L163.799 84.5501C163.749 84.1167 163.633 83.2501 163.383 81.5001H160.133L159.549 85.3334H158.049C156.733 85.3334 156.549 85.3001 156.549 85.0501C156.549 84.8834 157.233 80.5501 158.066 75.4167C158.899 70.2834 159.599 66.0001 159.649 65.8834C159.699 65.7334 160.299 65.6667 161.883 65.6667ZM160.549 78.4667C160.549 78.6167 160.899 78.6667 161.716 78.6667C162.816 78.6667 162.883 78.6501 162.883 78.3001C162.883 78.1001 162.683 76.6501 162.466 75.0834C162.233 73.5334 161.999 71.9001 161.966 71.4667C161.916 71.0334 161.816 70.6667 161.733 70.6667C161.666 70.6667 161.366 72.3834 161.083 74.4667C160.783 76.5501 160.549 78.3501 160.549 78.4667ZM175.633 65.6667C177.049 65.6667 178.616 65.7667 179.099 65.8667C179.566 65.9834 180.266 66.3001 180.633 66.5834C180.999 66.8667 181.483 67.4667 181.716 67.9334C182.083 68.6667 182.133 69.0167 182.199 71.0834C182.249 72.9001 182.199 73.6501 181.983 74.3834C181.799 75.0501 181.499 75.5667 181.016 76.1001C180.499 76.6501 180.066 76.9334 179.466 77.1001C179.016 77.2334 178.083 77.3501 176.216 77.3334V85.3334L172.966 85.2501L172.933 75.6667C172.899 70.4001 172.916 66.0001 172.966 65.8834C173.016 65.7334 173.716 65.6667 175.633 65.6667ZM176.216 74.5001C178.116 74.4001 178.349 74.3167 178.599 73.9834C178.849 73.6501 178.899 73.2501 178.899 71.4667C178.883 69.5667 178.849 69.3001 178.549 69.0001C178.299 68.7501 177.999 68.6667 177.216 68.6667H176.216V74.5001ZM183.733 65.6667L186.966 65.7501V85.2501L183.716 85.3334L183.733 65.6667ZM197.883 65.6834V68.6834H194.716V85.35L191.466 85.2667L191.383 68.6834L188.299 68.6001L188.249 67.3667C188.233 66.6834 188.249 66.0334 188.299 65.9167C188.366 65.7334 189.316 65.6834 197.883 65.6834ZM199.049 65.6834H202.383V73.6001C202.383 79.9334 202.433 81.6167 202.616 81.9834C202.733 82.2334 202.966 82.5001 203.116 82.5667C203.266 82.6334 203.583 82.6834 203.799 82.6834C204.033 82.6834 204.366 82.6167 204.549 82.5167C204.733 82.4334 204.966 82.1167 205.066 81.8167C205.166 81.4834 205.233 78.3001 205.216 65.6834H208.383L208.299 82.4334L207.866 83.3501C207.533 84.0334 207.216 84.4167 206.616 84.8167C206.116 85.1334 205.416 85.4167 204.799 85.5334C204.116 85.6501 203.533 85.6667 202.883 85.5501C202.383 85.4501 201.766 85.3001 201.516 85.2001C201.266 85.1001 200.816 84.8001 200.516 84.5501C200.216 84.2834 199.783 83.6667 199.133 82.2667L199.049 65.6834ZM210.433 65.6501L213.633 65.7167C216.216 65.7667 216.949 65.8334 217.483 66.0834C217.849 66.2334 218.333 66.5334 218.549 66.7334C218.749 66.9334 219.083 67.4001 219.283 67.7667C219.566 68.3001 219.649 68.8167 219.699 70.2667C219.749 71.4667 219.683 72.3667 219.549 72.8501C219.416 73.3334 219.066 73.8501 218.616 74.3167C218.033 74.8834 217.949 75.0334 218.199 75.1001C218.349 75.1334 218.733 75.4167 219.033 75.7167C219.383 76.0667 219.683 76.6001 219.849 77.1834C220.033 77.8667 220.083 78.6501 220.049 80.1834C219.999 82.0001 219.933 82.3834 219.566 83.1001C219.333 83.5667 218.849 84.1667 218.483 84.4501C218.116 84.7334 217.416 85.0501 216.949 85.1501C216.449 85.2667 214.816 85.35 210.399 85.35L210.433 65.6501ZM213.733 73.6834C215.366 73.5834 215.633 73.4834 215.983 73.1334C216.366 72.7167 216.399 72.5667 216.416 71.1501C216.416 69.8501 216.366 69.5334 216.083 69.1501C215.766 68.7334 215.633 68.6834 214.733 68.6834H213.733V73.6834ZM213.733 82.3501C215.799 82.3667 216.049 82.3001 216.316 82.0001C216.599 81.7001 216.666 81.3667 216.716 79.9501C216.749 79.0334 216.683 77.9834 216.583 77.6501C216.483 77.3001 216.266 76.9501 216.116 76.8667C215.949 76.7834 215.366 76.6667 214.799 76.6001L213.783 76.4667L213.733 82.3501Z" fill="url(#paint0_linear_131_251)"/>
<defs>
<linearGradient id="paint0_linear_131_251" x1="117.383" y1="10.6797" x2="117.383" y2="88.9769" gradientUnits="userSpaceOnUse">
<stop stop-color="#396CBE"/>
<stop offset="1" stop-color="#21489B"/>
</linearGradient>
</defs>
</svg>
