<svg width="65" height="65" viewBox="0 0 65 65" fill="none" xmlns="http://www.w3.org/2000/svg">
<path fill-rule="evenodd" clip-rule="evenodd" d="M44.7204 23.1521C43.2062 19.9274 33.1572 3.82829 32.9212 0.5C31.4876 2.78721 30.6917 5.41812 30.6165 8.11867C30.5413 10.8192 31.1894 13.4906 32.4935 15.8545L40.6349 30.4497C41.939 32.8136 42.5872 35.485 42.5119 38.1855C42.4367 40.8861 41.6408 43.517 40.2072 45.8042C39.9072 44.2487 39.3629 42.7508 38.5947 41.3665C37.1493 38.2404 24.8289 18.1917 24.76 15.0656C23.3332 17.3465 22.5395 19.9681 22.4608 22.6596C22.3822 25.3512 23.0215 28.0149 24.3126 30.3757L32.4984 45.0399C33.8041 47.404 34.4536 50.0761 34.3792 52.7776C34.3049 55.4791 33.5093 58.1112 32.0756 60.3994C31.8986 57.1894 21.7512 40.8438 20.2763 37.7423C18.9315 35.3245 18.283 32.5795 18.4032 29.8136C-14.4971 39.6013 0.743646 64.8223 32.4984 64.4969C64.2531 64.8026 79.4987 39.6013 46.5985 29.8136C46.502 27.4761 45.8587 25.1942 44.7204 23.1521Z" fill="white"/>
</svg>
