<svg width="34" height="34" viewBox="0 0 34 34" fill="none" xmlns="http://www.w3.org/2000/svg">
<path d="M25.1965 15.2486C24.2035 16.0664 23.4636 16.2027 23.1326 15.8717C22.9185 15.6575 22.8795 15.2292 23.0353 14.684C23.561 12.9511 23.9698 11.1988 24.3008 9.42702C26.2868 8.55086 28.2728 7.73311 30.4729 7.51894C29.441 10.3421 27.5524 13.2821 25.1965 15.2486ZM24.184 21.0702C22.9379 20.8171 22.3538 20.272 22.3928 19.7852C22.4122 19.4737 22.7043 19.1622 23.2105 18.948C24.7681 18.286 26.3063 17.5656 27.7665 16.6894C29.6941 17.624 31.5438 18.8117 33.0235 20.3109C30.3172 21.3234 26.9877 21.6544 24.184 21.0702ZM19.0439 24.1465C18.4403 22.9004 18.4987 22.0438 18.8881 21.7517C19.1607 21.557 19.589 21.5959 20.0758 21.8685C21.5945 22.7252 23.1326 23.504 24.7681 24.1465C24.7681 24.1465 24.7681 24.1465 24.7681 24.166C25.3522 26.5024 25.7027 28.9557 25.5469 31.37C22.8406 29.6566 20.3873 26.9308 19.0439 24.1465ZM13.2223 21.9075C13.9037 20.5445 14.6241 20.0188 15.1109 20.1746C15.4419 20.272 15.6755 20.6419 15.7534 21.2455C16.026 23.1536 16.4349 25.0227 16.9216 26.8724C15.2277 29.1504 13.417 31.3505 11.1389 33.1418C10.8858 29.4619 11.5868 25.2369 13.2223 21.9075ZM11.4699 15.6186C13.0081 15.307 13.8453 15.5602 14.04 16.0469C14.1568 16.3584 14.0011 16.7868 13.5727 17.2541C12.1319 18.7533 10.8079 20.3304 9.54238 21.9659H9.52291C6.42714 22.18 3.19508 22.0632 0.157715 21.3428C3.25349 18.7338 7.43959 16.4168 11.4699 15.6186ZM15.4029 10.5174C16.5517 11.5103 16.8632 12.2892 16.6101 12.7175C16.4349 12.9901 16.026 13.1264 15.4029 13.068C13.3391 12.8343 11.2752 12.737 9.19192 12.737C7.22542 10.4784 5.43416 7.96676 4.28541 5.26039C8.19893 6.13655 12.4045 7.96676 15.4029 10.5174ZM21.5166 10.5952C21.5166 11.9971 21.1272 12.698 20.6599 12.737C20.3484 12.7759 19.9979 12.5228 19.6669 12.0166C18.6155 10.3811 17.4668 8.80398 16.2402 7.26583C16.7074 4.81257 17.4668 2.32038 18.7713 0.15918C20.4068 3.29389 21.5361 7.11006 21.5166 10.5952Z" fill="white"/>
<path fill-rule="evenodd" clip-rule="evenodd" d="M16.239 7.24661C16.7063 4.81283 17.4656 2.32064 18.7701 0.159439C15.9859 -0.229966 13.1237 0.101028 10.5147 1.07454C12.1113 2.63216 13.6884 4.20925 15.1097 5.90317C15.2757 6.10406 15.4534 6.31279 15.6288 6.51881C15.8444 6.77204 16.0565 7.02116 16.239 7.24661ZM25.0594 2.36028C24.9426 4.22942 24.8063 6.0791 24.5337 7.9093C24.5013 8.11212 24.4688 8.33183 24.4364 8.55155C24.3909 8.85915 24.3455 9.16676 24.3001 9.42798C26.286 8.55182 28.272 7.73407 30.4721 7.5199C29.0898 5.43658 27.2401 3.66479 25.0594 2.36028ZM32.9049 13.1462C31.6393 14.1392 30.3348 15.1127 28.9524 15.9499C28.7762 16.0556 28.5921 16.1733 28.4089 16.2903C28.1874 16.4318 27.9673 16.5725 27.7647 16.6898C29.6923 17.6243 31.542 18.812 33.0217 20.3112C33.3722 17.8385 33.3527 15.6189 32.9049 13.1462ZM26.1083 24.6527C27.627 25.2174 29.2041 25.6457 30.7811 26.0351C29.4766 28.1379 27.6854 29.9876 25.5631 31.37C25.7189 28.9557 25.3684 26.5024 24.7843 24.166V24.1465C25.1076 24.292 25.5115 24.4375 25.8845 24.5719C25.9606 24.5993 26.0357 24.6263 26.1083 24.6527ZM19.3922 33.7646C18.6524 31.9928 17.9514 30.2015 17.3868 28.4103C17.3464 28.2789 17.3034 28.1424 17.2597 28.0039C17.1352 27.609 17.006 27.1986 16.9195 26.8527C15.2256 29.1307 13.4149 31.3308 11.1563 33.1221C13.8822 33.9204 16.5496 34.2708 19.3922 33.7646ZM8.47152 23.4658C7.14754 25.3154 5.94039 27.3014 4.79164 29.2874C2.53309 27.0872 0.936531 24.3224 0.157721 21.3435C3.19508 22.0639 6.42714 22.1807 9.52292 21.9665H9.54239C9.34379 22.2352 9.12416 22.546 8.90454 22.8567C8.75824 23.0637 8.6116 23.2712 8.47152 23.4658ZM0 13.3987C2.43378 13.1066 4.88704 12.8535 7.30135 12.7756C7.50564 12.7693 7.72039 12.7608 7.93601 12.7523C8.37793 12.7348 8.82359 12.7172 9.18996 12.7172C7.204 10.4782 5.4322 7.96649 4.28346 5.26013C2.12226 7.53815 0.642519 10.3808 0 13.3987Z" fill="white" fill-opacity="0.3"/>
</svg>
